<svg width="2933" height="1545" xmlns="http://www.w3.org/2000/svg" xmlns:xlink="http://www.w3.org/1999/xlink" overflow="hidden"><defs><clipPath id="clip0"><rect x="160" y="522" width="2933" height="1545"/></clipPath></defs><g clip-path="url(#clip0)" transform="translate(-160 -522)"><path d="M1235.5 1651.5C1235.5 1509.56 1430.03 1394.5 1670 1394.5 1909.97 1394.5 2104.5 1509.56 2104.5 1651.5 2104.5 1793.44 1909.97 1908.5 1670 1908.5 1430.03 1908.5 1235.5 1793.44 1235.5 1651.5Z" stroke="#000000" stroke-width="4.58333" stroke-linecap="butt" stroke-linejoin="miter" stroke-miterlimit="8" stroke-opacity="1" fill="#0432FF" fill-rule="evenodd" fill-opacity="0.898039"/><text fill="#FFFFFF" fill-opacity="1" font-family="Calibri,Calibri_MSFontService,sans-serif" font-style="normal" font-variant="normal" font-weight="400" font-stretch="normal" font-size="83" text-anchor="start" direction="ltr" writing-mode="lr-tb" unicode-bidi="normal" text-decoration="none" transform="matrix(1 0 0 1 1585.17 1629)">Body <tspan fill="#FFFFFF" fill-opacity="1" font-family="Calibri,Calibri_MSFontService,sans-serif" font-style="normal" font-variant="normal" font-weight="400" font-stretch="normal" font-size="83" text-anchor="start" direction="ltr" writing-mode="lr-tb" unicode-bidi="normal" text-decoration="none" x="-171.371" y="99">Representation</tspan></text><path d="M1944 1880.5C1944 1777.5 2071.38 1694 2228.5 1694 2385.62 1694 2513 1777.5 2513 1880.5 2513 1983.5 2385.62 2067 2228.5 2067 2071.38 2067 1944 1983.5 1944 1880.5Z" fill="#0432FF" fill-rule="evenodd" fill-opacity="0.396078"/><text fill="#FFFFFF" fill-opacity="1" font-family="Calibri,Calibri_MSFontService,sans-serif" font-style="normal" font-variant="normal" font-weight="400" font-stretch="normal" font-size="73" text-anchor="start" direction="ltr" writing-mode="lr-tb" unicode-bidi="normal" text-decoration="none" transform="matrix(1 0 0 1 2110.31 1818)">Sensory <tspan fill="#FFFFFF" fill-opacity="1" font-family="Calibri,Calibri_MSFontService,sans-serif" font-style="normal" font-variant="normal" font-weight="400" font-stretch="normal" font-size="73" text-anchor="start" direction="ltr" writing-mode="lr-tb" unicode-bidi="normal" text-decoration="none" x="-46.1082" y="88">Integration </tspan><tspan fill="#FFFFFF" fill-opacity="1" font-family="Calibri,Calibri_MSFontService,sans-serif" font-style="normal" font-variant="normal" font-weight="400" font-stretch="normal" font-size="73" text-anchor="start" direction="ltr" writing-mode="lr-tb" unicode-bidi="normal" text-decoration="none" x="-27.8665" y="176">Processes</tspan></text><path d="M1837 1533C1837 1410.95 1982.06 1312 2161 1312 2339.94 1312 2485 1410.95 2485 1533 2485 1655.06 2339.94 1754 2161 1754 1982.06 1754 1837 1655.06 1837 1533Z" fill="#0432FF" fill-rule="evenodd" fill-opacity="0.396078"/><text fill="#FFFFFF" fill-opacity="1" font-family="Calibri,Calibri_MSFontService,sans-serif" font-style="normal" font-variant="normal" font-weight="400" font-stretch="normal" font-size="73" text-anchor="start" direction="ltr" writing-mode="lr-tb" unicode-bidi="normal" text-decoration="none" transform="matrix(1 0 0 1 2085.57 1514)">Body <tspan fill="#FFFFFF" fill-opacity="1" font-family="Calibri,Calibri_MSFontService,sans-serif" font-style="normal" font-variant="normal" font-weight="400" font-stretch="normal" font-size="73" text-anchor="start" direction="ltr" writing-mode="lr-tb" unicode-bidi="normal" text-decoration="none" x="-45.2605" y="88">Illusions</tspan></text><path d="M1372 1241.5C1372 1099.84 1526.69 985 1717.5 985 1908.31 985 2063 1099.84 2063 1241.5 2063 1383.16 1908.31 1498 1717.5 1498 1526.69 1498 1372 1383.16 1372 1241.5Z" fill="#0432FF" fill-rule="evenodd" fill-opacity="0.396078"/><text fill="#FFFFFF" fill-opacity="1" font-family="Calibri,Calibri_MSFontService,sans-serif" font-style="normal" font-variant="normal" font-weight="400" font-stretch="normal" font-size="73" text-anchor="start" direction="ltr" writing-mode="lr-tb" unicode-bidi="normal" text-decoration="none" transform="matrix(1 0 0 1 1571.75 1222)">Plasticity/ <tspan fill="#FFFFFF" fill-opacity="1" font-family="Calibri,Calibri_MSFontService,sans-serif" font-style="normal" font-variant="normal" font-weight="400" font-stretch="normal" font-size="73" text-anchor="start" direction="ltr" writing-mode="lr-tb" unicode-bidi="normal" text-decoration="none" x="17.9208" y="88">Learning</tspan></text><path d="M182.5 1209.5C182.5 1067.56 376.808 952.5 616.5 952.5 856.192 952.5 1050.5 1067.56 1050.5 1209.5 1050.5 1351.44 856.192 1466.5 616.5 1466.5 376.808 1466.5 182.5 1351.44 182.5 1209.5Z" stroke="#000000" stroke-width="4.58333" stroke-linecap="butt" stroke-linejoin="miter" stroke-miterlimit="8" stroke-opacity="1" fill="#FF9300" fill-rule="evenodd" fill-opacity="0.8"/><text fill="#FFFFFF" fill-opacity="1" font-family="Calibri,Calibri_MSFontService,sans-serif" font-style="normal" font-variant="normal" font-weight="400" font-stretch="normal" font-size="83" text-anchor="start" direction="ltr" writing-mode="lr-tb" unicode-bidi="normal" text-decoration="none" transform="matrix(1 0 0 1 382.012 1237)">(Chronic) Pain</text><path d="M2220.5 968.5C2220.5 826.563 2415.03 711.5 2655 711.5 2894.97 711.5 3089.5 826.563 3089.5 968.5 3089.5 1110.44 2894.97 1225.5 2655 1225.5 2415.03 1225.5 2220.5 1110.44 2220.5 968.5Z" stroke="#000000" stroke-width="4.58333" stroke-linecap="butt" stroke-linejoin="miter" stroke-miterlimit="8" stroke-opacity="1" fill="#FFFC00" fill-rule="evenodd" fill-opacity="0.8"/><text fill="#000000" fill-opacity="1" font-family="Calibri,Calibri_MSFontService,sans-serif" font-style="normal" font-variant="normal" font-weight="400" font-stretch="normal" font-size="83" text-anchor="start" direction="ltr" writing-mode="lr-tb" unicode-bidi="normal" text-decoration="none" transform="matrix(1 0 0 1 2555.47 996)">Touch</text><path d="M1996 710C1996 607.275 2109.94 524 2250.5 524 2391.06 524 2505 607.275 2505 710 2505 812.725 2391.06 896 2250.5 896 2109.94 896 1996 812.725 1996 710Z" fill="#FFFC00" fill-rule="evenodd" fill-opacity="0.501961"/><text fill="#000000" fill-opacity="1" font-family="Calibri,Calibri_MSFontService,sans-serif" font-style="normal" font-variant="normal" font-weight="400" font-stretch="normal" font-size="73" text-anchor="start" direction="ltr" writing-mode="lr-tb" unicode-bidi="normal" text-decoration="none" transform="matrix(1 0 0 1 2123.58 691)">Localiza<tspan fill="#000000" fill-opacity="1" font-family="Calibri,Calibri_MSFontService,sans-serif" font-style="normal" font-variant="normal" font-weight="400" font-stretch="normal" font-size="73" text-anchor="start" direction="ltr" writing-mode="lr-tb" unicode-bidi="normal" text-decoration="none" x="231.344" y="0">-</tspan><tspan fill="#000000" fill-opacity="1" font-family="Calibri,Calibri_MSFontService,sans-serif" font-style="normal" font-variant="normal" font-weight="400" font-stretch="normal" font-size="73" text-anchor="start" direction="ltr" writing-mode="lr-tb" unicode-bidi="normal" text-decoration="none" x="67.5354" y="88">tion</tspan></text><path d="M1976 1203.5C1976 1100.5 2089.94 1017 2230.5 1017 2371.06 1017 2485 1100.5 2485 1203.5 2485 1306.5 2371.06 1390 2230.5 1390 2089.94 1390 1976 1306.5 1976 1203.5Z" fill="#FFFC00" fill-rule="evenodd" fill-opacity="0.501961"/><text fill="#000000" fill-opacity="1" font-family="Calibri,Calibri_MSFontService,sans-serif" font-style="normal" font-variant="normal" font-weight="400" font-stretch="normal" font-size="73" text-anchor="start" direction="ltr" writing-mode="lr-tb" unicode-bidi="normal" text-decoration="none" transform="matrix(1 0 0 1 2135.4 1184)">Tactile <tspan fill="#000000" fill-opacity="1" font-family="Calibri,Calibri_MSFontService,sans-serif" font-style="normal" font-variant="normal" font-weight="400" font-stretch="normal" font-size="73" text-anchor="start" direction="ltr" writing-mode="lr-tb" unicode-bidi="normal" text-decoration="none" x="-14.8958" y="88">Motion</tspan></text><path d="M1765 952C1765 849.275 1878.94 766 2019.5 766 2160.06 766 2274 849.275 2274 952 2274 1054.73 2160.06 1138 2019.5 1138 1878.94 1138 1765 1054.73 1765 952Z" fill="#FFFC00" fill-rule="evenodd" fill-opacity="0.501961"/><text fill="#000000" fill-opacity="1" font-family="Calibri,Calibri_MSFontService,sans-serif" font-style="normal" font-variant="normal" font-weight="400" font-stretch="normal" font-size="73" text-anchor="start" direction="ltr" writing-mode="lr-tb" unicode-bidi="normal" text-decoration="none" transform="matrix(1 0 0 1 1924.7 889)">Tactile <tspan fill="#000000" fill-opacity="1" font-family="Calibri,Calibri_MSFontService,sans-serif" font-style="normal" font-variant="normal" font-weight="400" font-stretch="normal" font-size="73" text-anchor="start" direction="ltr" writing-mode="lr-tb" unicode-bidi="normal" text-decoration="none" x="-35.2459" y="88">(motion) </tspan><tspan fill="#000000" fill-opacity="1" font-family="Calibri,Calibri_MSFontService,sans-serif" font-style="normal" font-variant="normal" font-weight="400" font-stretch="normal" font-size="73" text-anchor="start" direction="ltr" writing-mode="lr-tb" unicode-bidi="normal" text-decoration="none" x="8.63953" y="176">priors</tspan></text><path d="M930 1075C930 957.363 1067.67 862 1237.5 862 1407.33 862 1545 957.363 1545 1075 1545 1192.64 1407.33 1288 1237.5 1288 1067.67 1288 930 1192.64 930 1075Z" fill="#FF9300" fill-rule="evenodd" fill-opacity="0.501961"/><text fill="#FFFFFF" fill-opacity="1" font-family="Calibri,Calibri_MSFontService,sans-serif" font-style="normal" font-variant="normal" font-weight="400" font-stretch="normal" font-size="83" text-anchor="start" direction="ltr" writing-mode="lr-tb" unicode-bidi="normal" text-decoration="none" transform="matrix(1 0 0 1 1100.93 1003)">Learned <tspan fill="#FFFFFF" fill-opacity="1" font-family="Calibri,Calibri_MSFontService,sans-serif" font-style="normal" font-variant="normal" font-weight="400" font-stretch="normal" font-size="83" text-anchor="start" direction="ltr" writing-mode="lr-tb" unicode-bidi="normal" text-decoration="none" x="32.198" y="99">motor </tspan><tspan fill="#FFFFFF" fill-opacity="1" font-family="Calibri,Calibri_MSFontService,sans-serif" font-style="normal" font-variant="normal" font-weight="400" font-stretch="normal" font-size="83" text-anchor="start" direction="ltr" writing-mode="lr-tb" unicode-bidi="normal" text-decoration="none" x="-37.5145" y="198">Avoidance</tspan></text><path d="M808 1477C808 1354.95 965.372 1256 1159.5 1256 1353.63 1256 1511 1354.95 1511 1477 1511 1599.06 1353.63 1698 1159.5 1698 965.372 1698 808 1599.06 808 1477Z" fill="#FF9300" fill-rule="evenodd" fill-opacity="0.501961"/><text fill="#FFFFFF" fill-opacity="1" font-family="Calibri,Calibri_MSFontService,sans-serif" font-style="normal" font-variant="normal" font-weight="400" font-stretch="normal" font-size="83" text-anchor="start" direction="ltr" writing-mode="lr-tb" unicode-bidi="normal" text-decoration="none" transform="matrix(1 0 0 1 976.761 1405)">Distortions <tspan fill="#FFFFFF" fill-opacity="1" font-family="Calibri,Calibri_MSFontService,sans-serif" font-style="normal" font-variant="normal" font-weight="400" font-stretch="normal" font-size="83" text-anchor="start" direction="ltr" writing-mode="lr-tb" unicode-bidi="normal" text-decoration="none" x="16.9125" y="99">of Body &amp; </tspan><tspan fill="#FFFFFF" fill-opacity="1" font-family="Calibri,Calibri_MSFontService,sans-serif" font-style="normal" font-variant="normal" font-weight="400" font-stretch="normal" font-size="83" text-anchor="start" direction="ltr" writing-mode="lr-tb" unicode-bidi="normal" text-decoration="none" x="84.2187" y="198">Space</tspan></text><path d="M161 1606C161 1464.06 314.79 1349 504.5 1349 694.21 1349 848 1464.06 848 1606 848 1747.94 694.21 1863 504.5 1863 314.79 1863 161 1747.94 161 1606Z" fill="#FF9300" fill-rule="evenodd" fill-opacity="0.501961"/><text fill="#FFFFFF" fill-opacity="1" font-family="Calibri,Calibri_MSFontService,sans-serif" font-style="normal" font-variant="normal" font-weight="400" font-stretch="normal" font-size="83" text-anchor="start" direction="ltr" writing-mode="lr-tb" unicode-bidi="normal" text-decoration="none" transform="matrix(1 0 0 1 381.276 1534)">Altered <tspan fill="#FFFFFF" fill-opacity="1" font-family="Calibri,Calibri_MSFontService,sans-serif" font-style="normal" font-variant="normal" font-weight="400" font-stretch="normal" font-size="83" text-anchor="start" direction="ltr" writing-mode="lr-tb" unicode-bidi="normal" text-decoration="none" x="-8.9375" y="99">Sensory </tspan><tspan fill="#FFFFFF" fill-opacity="1" font-family="Calibri,Calibri_MSFontService,sans-serif" font-style="normal" font-variant="normal" font-weight="400" font-stretch="normal" font-size="83" text-anchor="start" direction="ltr" writing-mode="lr-tb" unicode-bidi="normal" text-decoration="none" x="-54.175" y="198">Processing</tspan></text></g></svg>